<svg xmlns="http://www.w3.org/2000/svg" xmlns:xlink="http://www.w3.org/1999/xlink" version="1.1" x="0px" y="0px" viewBox="0 0 100 100" enable-background="new 0 0 100 100" xml:space="preserve"><path d="M89,5.2H57.9C54.7,5.2,52,7.8,52,11c0,3.2,2.6,5.9,5.9,5.9H75L64.3,27.4H11c-3.2,0-5.7,2.7-5.7,5.9V89  c0,3.2,2.5,5.8,5.7,5.8h55.6c3.3,0,5.9-2.6,5.9-5.8V35.7L83.2,25v17.2c0,3.2,2.6,5.8,5.8,5.8c3.2,0,5.8-2.6,5.8-5.8V11  C94.8,7.8,92.2,5.2,89,5.2L89,5.2z M60.9,83.2H16.8V39.1h35.9L34.8,57c-2.3,2.3-2.3,6,0,8.1c2.2,2.3,5.9,2.3,8.2,0  c0-0.1,17.8-17.8,17.8-17.8V83.2z"/></svg>